<?xml version="1.0" encoding="utf-8"?><svg viewBox="0 0 105 32" xmlns="http://www.w3.org/2000/svg" xmlns:xlink="http://www.w3.org/1999/xlink"><style>:root>svg{display:none}:root>svg:target{display:block}</style><svg viewBox="0 0 105 32" id="main-header-logo" xmlns="http://www.w3.org/2000/svg"><path fill="#efefef" d="M62.101 0h.955c5.265.465 10.452 3.298 13.012 8.026 3.19 5.796 2.519 13.486-1.775 18.55 1.786 1.858 3.587 3.706 5.512 5.419A4111.182 4111.182 0 0179.79 0h8.124c4.119.454 8.65 1.058 11.84 3.99 2.988 2.632 4.289 6.581 5.022 10.379v3.138c-.65 4.459-2.565 9.079-6.436 11.654-2.503 1.755-5.574 2.266-8.506 2.839H61.927c-6.839-.403-13.29-5.419-14.514-12.299-.021-2.637-2.534-3.969-4.191-5.621-.077 5.972.021 11.948-.052 17.92H32.698c-2.994-3.69-5.228-7.933-8.186-11.654 1.641 3.943 3.52 7.783 5.321 11.654H11.361c-.733-1.76-1.357-3.561-1.992-5.363 3.788-.031 7.577.021 11.365-.031-1.863-4.516-3.716-9.043-5.739-13.492-2.828 6.302-5.507 12.676-8.532 18.885H.182C5.096 21.408 10.226 10.915 15.119.314c2.441 4.991 4.619 10.111 7.086 15.092 2.968-.356 6.23.676 8.981-.764 3.257-1.786 2.828-7.303-.733-8.49-4.067-1.156-8.382-.356-12.552-.588.738-1.739 1.357-3.525 2.013-5.295 5.992.279 13.621-1.486 17.657 4.289.01-1.44.005-2.88 0-4.32 3.453 3.339 6.885 6.71 10.379 10.008C50.009 4.311 55.96.424 62.102.001zm-.202 1.889c.072 9.414-.212 18.839.15 28.243l1.29-.036c.005-9.419-.005-18.839.005-28.258-.361.01-1.084.036-1.445.052zm-12.598 9.662c2.183 2.307 4.537 4.454 6.787 6.699.098-4.955.031-9.915.041-14.87-3.2 1.775-5.585 4.748-6.828 8.17zm19.7-8.046c-.088 7.711-.01 15.427-.041 23.138.872.005 1.75.01 2.627.01 7.21-6.085 5.832-18.828-2.586-23.148zM85.44 5.559c-.021 6.983-.015 13.966 0 20.95 3.195.026 6.679.083 9.399-1.868 5.548-3.608 5.615-12.728.475-16.733-2.71-2.297-6.498-2.385-9.874-2.348zM30.963 20.15c1.992 3.195 4.335 6.168 6.534 9.223.17-4.47.046-8.955.072-13.43-1.657 2.106-3.855 3.892-6.606 4.206zm18.167-.367c1.409 4.852 5.45 9.063 10.503 10.008-3.375-3.458-6.937-6.746-10.503-10.008z"/></svg></svg>