<?xml version="1.0" standalone="no"?>
<!DOCTYPE svg PUBLIC "-//W3C//DTD SVG 20010904//EN"
 "http://www.w3.org/TR/2001/REC-SVG-20010904/DTD/svg10.dtd">
<svg version="1.0" xmlns="http://www.w3.org/2000/svg"
 width="260.000000pt" height="260.000000pt" viewBox="0 0 260.000000 260.000000"
 preserveAspectRatio="xMidYMid meet">
<metadata>
Created by potrace 1.11, written by Peter Selinger 2001-2013
</metadata>
<g transform="translate(0.000000,260.000000) scale(0.100000,-0.100000)"
fill="#000000" stroke="none">
<path d="M981 2238 c-16 -35 -66 -139 -111 -233 -45 -93 -102 -210 -125 -260
-23 -49 -68 -144 -100 -210 -31 -66 -77 -163 -102 -215 -25 -52 -81 -167 -124
-254 -43 -88 -76 -162 -73 -165 7 -8 24 19 30 51 4 15 15 35 25 44 11 9 19 23
19 30 0 7 6 11 14 8 8 -3 17 -1 20 4 7 11 83 -1 98 -16 6 -6 12 -34 14 -61 3
-64 13 -111 24 -111 20 0 40 13 40 27 0 8 4 12 9 8 5 -3 13 0 17 6 4 8 3 9 -4
5 -8 -5 -11 5 -9 33 1 21 5 37 8 35 3 -2 16 6 28 17 18 17 22 18 27 5 3 -9 10
-13 15 -10 15 9 14 -41 -2 -92 -5 -18 -19 -34 -29 -37 -11 -3 -20 -14 -20 -25
0 -15 -7 -19 -29 -18 -16 1 -33 4 -37 8 -3 4 -16 2 -27 -4 -30 -16 -153 -3
-211 21 -27 12 -50 20 -52 18 -2 -2 -33 -66 -69 -143 -36 -76 -71 -149 -76
-160 -6 -12 -12 -37 -14 -55 -4 -49 -4 -49 -17 -49 -13 0 -78 -109 -78 -129 0
-18 135 -14 150 4 7 8 16 15 21 15 5 0 6 -7 3 -15 -5 -12 5 -15 54 -15 34 0
64 5 68 11 4 7 9 8 13 1 7 -12 32 4 50 33 9 15 11 16 7 3 -8 -26 3 -48 23 -48
17 0 30 24 79 140 8 19 33 73 57 120 23 47 55 117 70 155 16 39 52 118 82 177
29 59 53 111 53 116 0 5 18 46 40 90 22 44 40 85 40 92 0 6 6 24 14 38 8 15
37 75 65 135 27 59 53 107 58 107 7 0 52 -96 113 -242 12 -30 26 -48 36 -48
12 0 15 -6 10 -24 -7 -29 5 -62 120 -322 46 -105 84 -195 84 -200 0 -5 -158
-8 -370 -6 l-369 3 25 -58 c15 -32 39 -94 56 -138 27 -73 49 -117 34 -70 -3
11 -2 25 2 31 10 15 73 24 95 12 20 -10 23 -44 5 -51 -7 -3 -4 -5 8 -4 16 1
19 6 16 24 -3 13 1 23 7 23 7 0 9 -5 5 -11 -3 -6 8 -3 25 5 17 9 31 22 31 29
0 8 3 7 9 -2 7 -10 4 -19 -7 -28 -14 -10 -14 -12 -2 -13 31 0 43 16 30 40 -6
12 -9 28 -6 36 5 14 11 13 55 -13 2 -2 -4 -12 -13 -22 -18 -20 -5 -24 22 -8 6
5 12 4 12 -1 0 -10 -60 -38 -72 -34 -5 1 -8 -2 -8 -8 0 -5 7 -10 15 -10 18 0
20 -16 3 -24 -7 -3 -2 -3 10 0 21 5 23 3 17 -15 -5 -15 -2 -21 10 -21 9 0 13
5 10 10 -4 6 -1 18 6 26 7 9 14 22 15 29 1 7 7 21 14 32 10 16 11 16 6 0 -7
-22 -2 -22 20 0 12 12 19 14 21 6 3 -7 10 -10 17 -7 7 3 26 -2 42 -11 16 -8
35 -15 42 -15 6 0 12 -9 12 -19 0 -27 14 -33 36 -16 11 8 14 14 7 15 -21 0
-15 14 12 27 21 9 25 9 25 -6 0 -9 5 -22 12 -29 9 -9 14 -6 23 11 10 20 7 24
-50 53 -33 18 -60 36 -60 40 0 5 7 44 15 87 l14 77 56 0 c64 0 100 20 100 54
0 13 7 29 15 36 8 7 15 22 16 34 0 11 3 16 5 9 4 -8 14 -8 39 3 43 17 45 17
45 -1 0 -27 16 -16 30 20 15 38 32 48 23 14 -4 -16 -2 -20 8 -17 8 3 13 12 11
20 -1 9 4 18 13 22 8 3 15 1 15 -4 0 -6 -4 -10 -10 -10 -5 0 -7 -6 -4 -14 3
-8 13 -12 25 -9 10 3 19 1 19 -4 0 -5 10 -9 21 -10 27 -2 37 -12 21 -22 -7 -4
-10 -16 -6 -27 3 -11 2 -14 -3 -8 -5 8 -16 8 -31 3 -26 -10 -21 -29 7 -29 10
0 21 -3 25 -7 4 -5 12 -9 17 -9 5 -1 13 -2 17 -3 4 0 15 -14 25 -30 16 -28 16
-29 -5 -43 -18 -12 -20 -18 -11 -30 7 -8 10 -24 6 -36 -5 -21 6 -29 21 -14 13
13 30 8 54 -15 26 -27 38 -29 45 -9 6 16 -197 445 -218 462 -11 8 -10 12 5 22
16 10 21 8 31 -11 15 -28 191 -297 194 -297 2 0 1 9 -2 19 -3 10 3 30 12 44
14 22 21 24 40 17 15 -6 27 -6 30 0 3 5 -11 14 -32 19 -21 6 -44 19 -52 29 -8
12 -21 17 -32 15 -27 -7 -38 43 -14 65 16 16 17 16 5 -7 -12 -23 -11 -23 26 5
24 18 36 23 32 13 -8 -20 16 -21 52 -2 14 7 19 13 13 13 -7 0 -13 5 -13 10 0
7 8 7 22 -1 16 -9 23 -9 26 0 8 23 18 10 14 -18 -3 -22 -8 -28 -21 -24 -21 8
-12 -1 17 -16 12 -7 22 -8 21 -4 -1 4 0 15 1 23 3 23 22 -51 23 -89 0 -33 1
-33 16 -14 9 11 21 18 26 16 6 -2 11 8 11 22 1 14 -2 25 -7 25 -5 0 -9 -7 -9
-15 0 -8 -4 -15 -9 -15 -20 0 9 56 29 57 16 1 19 -3 14 -23 -7 -28 3 -31 23
-6 14 16 14 16 9 0 -5 -17 -1 -20 34 -22 8 -1 15 -8 15 -16 0 -18 17 -40 27
-34 9 6 21 -34 13 -46 -4 -6 1 -7 11 -3 14 5 16 2 10 -21 -4 -18 -3 -25 4 -21
5 3 10 1 10 -4 0 -6 -5 -11 -11 -11 -8 0 -8 -4 1 -14 6 -8 18 -12 26 -9 10 4
12 0 7 -12 -5 -15 -2 -17 15 -13 32 9 27 -8 -5 -18 -16 -4 -33 -8 -40 -9 -6 0
-15 -4 -19 -8 -4 -4 -17 -7 -29 -7 -11 0 -25 -4 -30 -8 -13 -11 -112 -53 -138
-58 -38 -7 -36 -19 15 -97 l51 -77 224 0 224 0 -33 48 c-79 117 -294 401 -304
401 -6 1 -11 7 -11 14 0 6 -41 67 -91 134 -51 67 -92 126 -92 132 0 5 30 19
68 32 213 70 322 166 394 349 38 97 51 163 51 264 0 114 -14 178 -66 285 -79
163 -231 280 -413 318 -64 13 -145 16 -414 17 l-335 1 -65 -162 c-36 -90 -69
-163 -75 -163 -5 0 -43 75 -84 165 -41 91 -76 165 -78 165 -2 0 -17 -28 -32
-62z m379 -58 c-6 -11 -13 -20 -16 -20 -2 0 0 9 6 20 6 11 13 20 16 20 2 0 0
-9 -6 -20z m48 -18 c20 -17 20 -21 6 -38 -9 -10 -13 -13 -9 -6 3 6 1 12 -5 12
-6 0 -13 -7 -16 -15 -4 -8 -10 -15 -15 -15 -4 0 -6 7 -3 15 4 8 1 15 -6 15 -6
0 -9 4 -6 9 3 5 15 7 26 4 11 -3 20 0 20 6 0 6 -3 10 -7 10 -17 -3 -24 2 -18
11 8 13 8 13 33 -8z m84 -16 c4 -6 14 -4 25 4 17 13 17 13 2 -4 -13 -14 -21
-16 -37 -7 -10 6 -23 7 -27 3 -5 -4 -5 -1 -1 5 8 14 27 13 38 -1z m68 -16 c0
-5 -5 -10 -11 -10 -5 0 -7 5 -4 10 3 6 8 10 11 10 2 0 4 -4 4 -10z m-540 -45
c0 -3 -4 -3 -10 0 -6 3 -10 -4 -10 -17 0 -17 3 -19 9 -9 5 7 13 11 19 7 6 -3
13 0 15 6 3 8 6 6 6 -4 1 -10 -3 -18 -9 -18 -5 0 -7 -6 -4 -14 3 -9 -4 -15
-20 -18 -19 -4 -26 -1 -26 11 0 14 -2 14 -11 1 -8 -11 -12 -12 -16 -2 -2 6 -9
12 -14 12 -6 0 -7 -5 -3 -12 4 -7 3 -8 -5 -4 -17 11 -4 47 26 73 22 18 28 19
40 8 7 -8 13 -16 13 -20z m403 -3 c-3 -12 -9 -19 -14 -16 -5 3 -9 0 -9 -7 0
-7 -3 -9 -6 -6 -4 4 1 18 10 33 20 30 28 28 19 -4z m584 -4 c-3 -8 -6 -5 -6 6
-1 11 2 17 5 13 3 -3 4 -12 1 -19z m43 12 c0 -5 -5 -10 -11 -10 -5 0 -7 5 -4
10 3 6 8 10 11 10 2 0 4 -4 4 -10z m-179 -19 c-6 -10 -8 -20 -6 -23 2 -2 -4
-4 -14 -5 -17 -1 -16 1 3 23 25 29 30 30 17 5z m249 15 c0 -3 -4 -8 -10 -11
-5 -3 -10 -1 -10 4 0 6 5 11 10 11 6 0 10 -2 10 -4z m-670 -16 c0 -5 -2 -10
-4 -10 -3 0 -8 5 -11 10 -3 6 -1 10 4 10 6 0 11 -4 11 -10z m120 -20 c-6 -11
-16 -20 -22 -20 -6 0 -3 9 7 20 10 11 20 20 22 20 2 0 -1 -9 -7 -20z m-130
-10 c0 -5 -2 -10 -4 -10 -3 0 -8 5 -11 10 -3 6 -1 10 4 10 6 0 11 -4 11 -10z
m540 -7 c0 -14 -2 -15 -9 -4 -5 8 -14 10 -21 6 -9 -5 -11 -4 -6 3 11 18 36 14
36 -5z m-14 -97 c74 -26 142 -82 178 -146 28 -50 31 -63 31 -140 -1 -69 -5
-94 -24 -130 -45 -88 -111 -138 -216 -166 -34 -10 -117 -14 -260 -14 l-211 0
-44 88 c-57 113 -240 514 -240 525 0 5 165 7 368 5 324 -3 373 -6 418 -22z
m-1246 -447 c0 -5 -9 -9 -20 -9 -22 0 -27 16 -7 23 15 5 27 -1 27 -14z m1590
-3 c0 -3 -4 -8 -10 -11 -5 -3 -10 -1 -10 4 0 6 5 11 10 11 6 0 10 -2 10 -4z
m70 -20 c0 -2 -9 -2 -20 1 -11 3 -20 9 -20 15 0 5 9 4 20 -2 11 -6 20 -12 20
-14z m-143 -8 c-3 -8 -6 -5 -6 6 -1 11 2 17 5 13 3 -3 4 -12 1 -19z m85 -10
c-6 -6 -15 -8 -19 -4 -4 4 -1 11 7 16 19 12 27 3 12 -12z m98 12 c0 -5 -5 -10
-11 -10 -5 0 -7 5 -4 10 3 6 8 10 11 10 2 0 4 -4 4 -10z m-1070 -14 c0 -3 -4
-8 -10 -11 -5 -3 -10 -1 -10 4 0 6 5 11 10 11 6 0 10 -2 10 -4z m830 -32 c0
-17 14 -18 43 -3 18 9 17 6 -5 -15 -16 -15 -28 -28 -28 -29 0 -1 13 -3 30 -4
16 -1 29 1 29 5 -3 16 2 32 9 32 15 0 12 -78 -3 -84 -8 -3 -15 -1 -15 4 0 6
-7 10 -15 10 -8 0 -15 5 -15 12 0 6 -3 8 -6 5 -4 -4 -1 -14 7 -23 13 -16 12
-16 -8 -6 -28 15 -36 15 -31 0 7 -20 -13 -34 -42 -30 -16 2 -31 -3 -39 -12
-15 -18 -31 -21 -31 -5 0 5 5 7 10 4 6 -3 10 1 10 9 0 9 -4 16 -10 16 -5 0 -9
3 -7 8 1 4 -2 8 -8 9 -5 1 -9 -5 -7 -14 2 -9 -2 -13 -10 -11 -7 3 -14 10 -14
16 -1 7 -2 15 -3 18 0 4 -12 -1 -26 -10 -15 -10 -25 -12 -25 -5 0 6 9 13 20
16 11 3 20 10 20 17 0 6 4 4 10 -4 7 -12 13 -10 34 13 14 15 28 27 33 27 4 0
2 -5 -5 -12 -7 -7 -12 -18 -12 -26 0 -9 7 -6 19 9 10 13 16 29 14 36 -3 7 0
13 5 13 19 0 25 -21 12 -45 -7 -13 -10 -30 -7 -39 7 -16 49 -18 44 -1 -2 5
-11 9 -20 7 -11 -2 -14 3 -10 18 4 15 9 18 23 10 26 -14 33 -12 27 4 -3 8 -1
16 5 18 6 2 8 10 4 16 -4 7 -16 10 -26 7 -19 -6 -36 20 -20 30 6 4 10 -1 10
-10 0 -9 5 -13 11 -10 6 4 8 14 5 22 -3 8 -1 11 4 8 6 -3 10 -13 10 -21z
m-830 1 c-7 -9 -15 -13 -19 -10 -3 3 1 10 9 15 21 14 24 12 10 -5z m1013 -46
c-5 -17 -9 -20 -28 -19 -3 1 -13 -6 -21 -15 -9 -8 -20 -15 -25 -15 -15 0 -10
20 6 26 8 4 15 15 15 25 0 10 5 19 10 19 6 0 10 -9 10 -21 0 -11 5 -17 10 -14
6 3 10 18 10 33 0 19 3 23 9 13 5 -7 6 -22 4 -32z m-1648 1 c-4 -7 30 -40 41
-40 4 0 4 9 1 21 -4 16 -3 18 9 8 7 -6 11 -15 8 -20 -3 -5 -1 -9 4 -9 6 0 12
7 16 15 6 18 66 21 66 3 0 -6 6 -3 14 8 8 11 18 15 23 10 4 -5 2 -11 -4 -13
-7 -3 -13 -12 -13 -20 0 -13 3 -13 18 -2 11 8 10 5 -4 -9 -22 -25 -95 -35
-242 -33 -55 0 -74 -3 -77 -14 -15 -48 -14 -46 -35 -33 -19 12 -19 14 -3 26
10 7 17 19 15 26 -1 8 4 16 13 20 8 3 15 13 15 23 0 15 2 16 10 3 8 -13 10
-13 10 2 0 9 12 25 27 36 22 16 32 17 59 9 18 -6 31 -13 29 -17z m1445 6 c0
-3 -4 -8 -10 -11 -5 -3 -10 -1 -10 4 0 6 5 11 10 11 6 0 10 -2 10 -4z m130 -6
c0 -5 -4 -10 -10 -10 -5 0 -10 5 -10 10 0 6 5 10 10 10 6 0 10 -4 10 -10z
m-388 -92 c-7 -7 -12 -8 -12 -2 0 6 3 14 7 17 3 4 9 5 12 2 2 -3 -1 -11 -7
-17z m104 -5 c-10 -10 -19 5 -10 18 6 11 8 11 12 0 2 -7 1 -15 -2 -18z m219 7
c3 -5 1 -10 -4 -10 -6 0 -11 5 -11 10 0 6 2 10 4 10 3 0 8 -4 11 -10z m-275
-10 c0 -5 -7 -10 -16 -10 -8 0 -12 5 -9 10 3 6 10 10 16 10 5 0 9 -4 9 -10z
m76 -16 c-4 -9 -9 -15 -11 -12 -3 3 -3 13 1 22 4 9 9 15 11 12 3 -3 3 -13 -1
-22z m-294 -26 c-8 -8 -9 -4 -5 13 4 13 8 18 11 10 2 -7 -1 -18 -6 -23z m-32
2 c0 -5 -5 -10 -11 -10 -5 0 -7 5 -4 10 3 6 8 10 11 10 2 0 4 -4 4 -10z m138
-15 c-3 -3 -9 2 -12 12 -6 14 -5 15 5 6 7 -7 10 -15 7 -18z m-561 -147 c-3 -8
-6 -5 -6 6 -1 11 2 17 5 13 3 -3 4 -12 1 -19z m-17 8 c0 -3 -4 -8 -10 -11 -5
-3 -10 -1 -10 4 0 6 5 11 10 11 6 0 10 -2 10 -4z m447 -108 c-3 -8 -6 -5 -6 6
-1 11 2 17 5 13 3 -3 4 -12 1 -19z m24 -14 c-11 -15 -21 -24 -21 -20 0 10 34
55 39 51 2 -2 -6 -16 -18 -31z m-343 -7 c2 -9 8 -17 13 -17 6 0 8 -4 4 -10 -3
-5 -12 -7 -19 -4 -8 3 -17 1 -21 -5 -3 -6 -1 -11 6 -11 7 0 -4 -16 -25 -35
-21 -19 -42 -32 -47 -29 -19 11 -8 35 25 55 46 27 53 54 13 54 -17 0 -32 5
-34 10 -1 6 15 10 39 10 33 0 44 -5 46 -18z m46 8 c-5 -12 -10 -13 -20 -4 -19
15 -18 19 6 19 13 0 18 -5 14 -15z m186 -9 c0 -3 -4 -8 -10 -11 -5 -3 -10 -1
-10 4 0 6 5 11 10 11 6 0 10 -2 10 -4z m180 -136 c0 -5 -5 -10 -11 -10 -5 0
-7 5 -4 10 3 6 8 10 11 10 2 0 4 -4 4 -10z m-1280 -234 c0 -3 -4 -8 -10 -11
-5 -3 -10 -1 -10 4 0 6 5 11 10 11 6 0 10 -2 10 -4z m510 -206 c0 -5 -5 -10
-11 -10 -5 0 -7 5 -4 10 3 6 8 10 11 10 2 0 4 -4 4 -10z"/>
<path d="M966 2073 c-6 -14 -5 -15 5 -6 7 7 10 15 7 18 -3 3 -9 -2 -12 -12z"/>
<path d="M2080 1310 c0 -5 5 -10 10 -10 6 0 10 5 10 10 0 6 -4 10 -10 10 -5 0
-10 -4 -10 -10z"/>
<path d="M835 1340 c3 -5 8 -10 11 -10 2 0 4 5 4 10 0 6 -5 10 -11 10 -5 0 -7
-4 -4 -10z"/>
<path d="M660 925 c-11 -13 -10 -14 4 -9 9 3 16 10 16 15 0 13 -6 11 -20 -6z"/>
<path d="M326 873 c-6 -14 -5 -15 5 -6 7 7 10 15 7 18 -3 3 -9 -2 -12 -12z"/>
<path d="M615 830 c3 -5 8 -10 11 -10 2 0 4 5 4 10 0 6 -5 10 -11 10 -5 0 -7
-4 -4 -10z"/>
<path d="M1975 720 c-3 -5 -1 -10 4 -10 6 0 11 5 11 10 0 6 -2 10 -4 10 -3 0
-8 -4 -11 -10z"/>
<path d="M2071 712 c0 -7 -5 -11 -10 -7 -15 9 -33 -33 -25 -58 4 -12 7 -32 5
-44 -3 -29 3 -29 56 2 35 21 43 23 43 10 0 -9 5 -13 10 -10 6 4 8 10 5 15 -3
5 0 18 7 29 14 23 2 43 -13 21 -8 -11 -9 -9 -4 10 6 25 6 25 -11 5 -11 -14
-18 -16 -21 -7 -3 6 -11 12 -18 12 -7 0 -16 8 -18 18 -3 9 -5 11 -6 4z m18
-76 c-9 -8 -10 -7 -5 7 3 10 7 24 7 30 1 7 3 4 6 -7 3 -10 -1 -23 -8 -30z"/>
<path d="M1440 692 c0 -7 -4 -10 -10 -7 -5 3 -10 2 -10 -4 0 -15 20 -25 30
-15 5 5 5 16 0 24 -7 11 -10 11 -10 2z"/>
<path d="M1501 659 c-18 -4 -40 -13 -47 -21 -12 -12 -8 -14 31 -14 25 1 45 4
45 8 0 5 6 8 13 8 6 0 20 6 29 14 16 11 15 13 -10 12 -15 0 -42 -3 -61 -7z"/>
<path d="M2216 645 c4 -8 8 -15 10 -15 2 0 4 7 4 15 0 8 -4 15 -10 15 -5 0 -7
-7 -4 -15z"/>
<path d="M2175 610 c3 -5 8 -10 11 -10 2 0 4 5 4 10 0 6 -5 10 -11 10 -5 0 -7
-4 -4 -10z"/>
<path d="M1400 601 c0 -4 -10 -8 -22 -8 -50 -1 -58 -4 -59 -20 0 -11 -3 -13
-6 -5 -2 6 -9 10 -14 7 -5 -4 -3 -12 4 -19 6 -8 16 -12 20 -9 5 3 4 -4 -2 -16
-11 -19 -9 -21 14 -21 15 0 24 -4 20 -10 -3 -5 1 -10 9 -10 19 0 21 11 4 28
-9 9 -9 12 0 12 7 0 12 7 12 15 0 8 5 15 11 15 5 0 7 -5 3 -12 -5 -7 -2 -9 8
-6 8 4 15 0 15 -7 0 -8 -5 -13 -11 -12 -5 1 -12 -6 -14 -15 -3 -14 3 -18 23
-18 14 0 24 -4 21 -8 -2 -4 5 -8 17 -9 12 0 36 -3 54 -7 17 -3 34 -2 38 3 3 6
18 6 38 0 41 -12 87 -12 87 0 0 5 10 11 21 13 12 2 26 13 30 26 5 13 5 21 0
18 -5 -3 -12 1 -15 10 -3 8 -2 12 4 9 6 -3 10 1 10 10 0 13 -9 15 -51 12 -27
-2 -52 0 -55 5 -3 4 -15 4 -27 -1 -12 -4 -47 -7 -78 -7 -41 1 -55 -2 -52 -11
3 -7 0 -13 -6 -13 -6 0 -10 13 -9 31 3 26 -1 32 -19 35 -13 2 -23 0 -23 -5z
m20 -27 c0 -8 -5 -12 -10 -9 -6 4 -8 11 -5 16 9 14 15 11 15 -7z m257 -40 c0
-7 -6 -10 -14 -7 -7 3 -13 8 -13 12 0 4 6 8 13 8 8 0 14 -6 14 -13z"/>
<path d="M2155 590 c-3 -5 1 -10 10 -10 9 0 13 5 10 10 -3 6 -8 10 -10 10 -2
0 -7 -4 -10 -10z"/>
<path d="M2112 566 c7 -8 15 -12 17 -11 5 6 -10 25 -20 25 -5 0 -4 -6 3 -14z"/>
<path d="M2100 524 c0 -8 5 -12 10 -9 6 3 10 10 10 16 0 5 -4 9 -10 9 -5 0
-10 -7 -10 -16z"/>
<path d="M1825 406 c-33 -13 -113 -41 -178 -61 -95 -31 -121 -36 -140 -27 -17
8 -18 11 -4 11 25 1 21 16 -8 29 -33 15 -75 15 -75 1 0 -7 -9 -20 -20 -29 -24
-20 -107 -21 -102 -1 1 6 -2 11 -8 11 -5 0 -10 -7 -10 -15 0 -18 -41 -20 -59
-2 -11 10 -14 10 -18 0 -6 -15 -43 -17 -43 -3 0 6 -7 10 -16 10 -8 0 -13 -4
-9 -9 3 -5 -7 -12 -22 -14 -16 -2 167 -5 405 -6 276 0 432 3 432 9 0 14 -53
120 -60 120 -3 -1 -32 -12 -65 -24z m-350 -74 c-3 -3 -11 0 -18 7 -9 10 -8 11
6 5 10 -3 15 -9 12 -12z"/>
<path d="M826 341 c4 -14 2 -21 -4 -17 -5 3 -12 -1 -16 -9 -4 -12 3 -15 29
-15 18 0 37 5 41 11 4 7 -1 10 -12 7 -13 -2 -23 5 -31 22 -12 24 -13 24 -7 1z"/>
<path d="M1080 330 c-9 -6 -10 -10 -3 -10 6 0 15 5 18 10 8 12 4 12 -15 0z"/>
<path d="M756 317 c3 -10 9 -15 12 -12 3 3 0 11 -7 18 -10 9 -11 8 -5 -6z"/>
<path d="M968 303 c7 -3 16 -2 19 1 4 3 -2 6 -13 5 -11 0 -14 -3 -6 -6z"/>
<path d="M1048 303 c6 -2 18 -2 25 0 6 3 1 5 -13 5 -14 0 -19 -2 -12 -5z"/>
</g>
</svg>
